<svg id="svg" version="1.1" xmlns="http://www.w3.org/2000/svg" xmlns:xlink="http://www.w3.org/1999/xlink" width="400" height="109.22865013774106" viewBox="0, 0, 400,109.22865013774106"><g id="svgg"><path id="path0" d="M53.083 0.118 C 51.723 0.163,49.200 0.326,45.833 0.587 C 45.146 0.640,44.108 0.750,43.528 0.831 C 42.947 0.912,42.375 0.942,42.257 0.896 C 42.139 0.851,40.851 1.002,39.396 1.233 C 37.941 1.463,36.375 1.696,35.917 1.751 C 35.458 1.805,34.671 1.954,34.167 2.081 C 33.662 2.209,32.912 2.357,32.500 2.411 C 31.401 2.556,29.334 3.066,29.334 3.193 C 29.333 3.253,29.184 3.263,29.002 3.216 C 28.821 3.168,28.539 3.186,28.377 3.256 C 28.216 3.326,27.971 3.405,27.833 3.431 C 27.392 3.514,25.623 4.027,24.250 4.470 C 23.517 4.706,22.842 4.908,22.750 4.918 C 22.591 4.935,22.327 5.029,21.583 5.333 C 20.865 5.628,20.578 5.718,20.454 5.692 C 20.383 5.676,20.030 5.815,19.669 5.999 C 19.308 6.183,18.898 6.333,18.757 6.333 C 18.615 6.333,18.500 6.408,18.500 6.500 C 18.500 6.592,18.380 6.667,18.234 6.667 C 18.088 6.667,17.761 6.814,17.507 6.995 C 17.253 7.176,16.994 7.272,16.932 7.210 C 16.637 6.914,16.930 42.533,17.237 44.333 C 17.402 45.296,17.558 46.370,17.585 46.720 C 17.647 47.536,18.277 50.124,18.729 51.417 C 18.921 51.967,19.089 52.473,19.101 52.542 C 19.114 52.610,19.140 52.685,19.159 52.708 C 19.177 52.731,19.217 52.862,19.247 53.000 C 19.278 53.137,19.423 53.531,19.570 53.874 C 19.717 54.218,19.843 54.555,19.849 54.624 C 19.856 54.693,19.939 54.844,20.035 54.958 C 20.130 55.073,20.162 55.167,20.107 55.167 C 20.051 55.167,20.154 55.431,20.336 55.755 C 20.518 56.079,20.667 56.447,20.667 56.575 C 20.667 56.702,20.723 56.831,20.792 56.861 C 20.860 56.892,21.246 57.554,21.648 58.333 C 22.050 59.112,22.483 59.811,22.610 59.885 C 22.737 59.960,22.797 60.091,22.744 60.177 C 22.690 60.263,22.726 60.333,22.823 60.333 C 22.921 60.333,23.000 60.458,23.000 60.609 C 23.000 60.761,23.187 61.131,23.417 61.431 C 23.646 61.732,23.833 62.029,23.833 62.092 C 23.833 62.192,24.337 62.847,25.068 63.696 C 25.200 63.849,25.394 64.136,25.500 64.333 C 25.606 64.531,25.836 64.836,26.013 65.013 C 26.189 65.189,26.333 65.408,26.333 65.500 C 26.333 65.592,26.446 65.667,26.583 65.667 C 26.721 65.667,26.815 65.734,26.792 65.815 C 26.748 65.970,27.769 67.214,28.917 68.405 C 29.283 68.785,29.827 69.378,30.125 69.721 C 30.423 70.064,30.667 70.299,30.667 70.243 C 30.667 70.187,31.176 70.653,31.799 71.279 C 33.202 72.689,35.402 74.670,35.920 74.989 C 36.133 75.121,36.387 75.402,36.484 75.614 C 36.580 75.826,36.741 76.000,36.840 76.000 C 37.013 76.000,37.301 76.238,38.601 77.458 C 38.918 77.756,39.236 78.000,39.308 78.000 C 39.379 78.000,39.604 78.225,39.807 78.500 C 40.010 78.775,40.239 79.000,40.316 79.000 C 40.450 79.000,41.306 79.745,43.015 81.349 C 43.463 81.770,43.859 82.085,43.894 82.050 C 43.930 82.015,44.151 82.214,44.385 82.493 C 44.620 82.772,44.862 83.000,44.922 83.000 C 44.983 83.000,45.242 83.206,45.497 83.458 C 46.379 84.329,47.138 85.000,47.241 85.000 C 47.298 85.000,47.568 85.229,47.841 85.508 C 48.135 85.808,48.423 85.968,48.544 85.898 C 48.657 85.833,48.693 85.843,48.623 85.919 C 48.491 86.065,49.118 86.833,49.370 86.833 C 49.537 86.833,50.320 87.686,50.328 87.875 C 50.339 88.141,49.959 87.979,49.449 87.501 C 49.156 87.226,48.821 87.001,48.703 87.001 C 48.586 87.000,48.446 86.887,48.394 86.750 C 48.341 86.612,48.196 86.500,48.072 86.500 C 47.948 86.500,47.712 86.363,47.548 86.196 C 47.384 86.029,46.987 85.713,46.667 85.494 C 46.346 85.275,45.984 84.980,45.863 84.839 C 45.677 84.624,45.662 84.623,45.770 84.833 C 45.841 84.971,45.628 84.858,45.298 84.583 C 44.005 83.508,43.440 83.075,43.061 82.870 C 42.844 82.752,42.667 82.579,42.667 82.485 C 42.667 82.391,42.601 82.354,42.520 82.404 C 42.440 82.454,42.196 82.324,41.978 82.115 C 41.761 81.906,41.176 81.448,40.679 81.097 C 40.182 80.746,39.694 80.393,39.596 80.314 C 39.497 80.234,39.079 79.904,38.667 79.580 C 38.254 79.256,37.742 78.843,37.528 78.662 C 37.313 78.481,37.093 78.333,37.037 78.333 C 36.981 78.333,36.713 78.127,36.442 77.875 C 36.170 77.623,36.003 77.529,36.070 77.667 C 36.137 77.804,36.055 77.767,35.888 77.583 C 35.433 77.085,34.167 76.119,34.167 76.271 C 34.167 76.343,33.910 76.131,33.597 75.799 C 33.284 75.467,32.997 75.225,32.960 75.262 C 32.923 75.299,32.678 75.106,32.415 74.832 C 32.152 74.558,31.870 74.333,31.787 74.333 C 31.653 74.333,31.272 74.022,30.325 73.139 C 30.162 72.986,29.998 72.891,29.961 72.927 C 29.925 72.964,29.453 72.586,28.913 72.087 C 28.373 71.588,27.904 71.207,27.872 71.239 C 27.840 71.271,27.645 71.137,27.440 70.941 C 26.737 70.267,26.003 69.667,25.882 69.667 C 25.761 69.667,25.374 69.314,24.552 68.458 C 24.310 68.206,24.030 68.000,23.929 68.000 C 23.829 68.000,23.653 67.850,23.539 67.667 C 23.424 67.483,23.246 67.333,23.143 67.333 C 23.039 67.333,22.784 67.165,22.576 66.958 C 22.368 66.752,21.834 66.253,21.390 65.850 C 20.176 64.747,18.025 62.667,18.099 62.667 C 18.135 62.667,17.928 62.442,17.640 62.167 C 17.353 61.892,17.060 61.667,16.991 61.667 C 16.922 61.667,16.667 61.329,16.425 60.917 C 16.184 60.504,15.923 60.167,15.846 60.167 C 15.769 60.167,15.664 60.009,15.614 59.817 C 15.564 59.624,15.448 59.513,15.357 59.569 C 15.265 59.625,15.138 59.505,15.073 59.302 C 15.009 59.099,14.866 58.842,14.755 58.731 C 14.645 58.621,14.301 58.130,13.991 57.640 C 13.681 57.151,13.388 56.712,13.339 56.667 C 13.122 56.463,12.543 55.502,12.083 54.583 C 11.808 54.033,11.527 53.558,11.457 53.527 C 11.388 53.497,11.374 53.403,11.425 53.319 C 11.477 53.235,11.440 53.167,11.343 53.167 C 11.246 53.167,11.167 53.031,11.167 52.865 C 11.167 52.698,10.968 52.155,10.726 51.656 C 10.483 51.158,10.260 50.600,10.230 50.417 C 10.200 50.233,10.029 49.578,9.849 48.961 C 9.670 48.344,9.485 47.519,9.440 47.128 C 9.260 45.583,9.169 44.899,9.088 44.500 C 8.809 43.125,8.670 39.670,8.663 33.940 L 8.654 27.422 9.115 27.086 C 9.369 26.901,9.607 26.775,9.644 26.806 C 9.682 26.837,9.759 26.798,9.815 26.720 C 9.926 26.565,11.318 25.825,13.208 24.915 L 13.833 24.614 13.833 19.807 C 13.833 16.713,13.774 15.000,13.667 15.000 C 13.575 15.000,13.500 15.088,13.500 15.194 C 13.500 15.301,13.453 15.342,13.396 15.285 C 13.339 15.228,13.004 15.328,12.653 15.507 C 12.301 15.687,11.898 15.833,11.757 15.833 C 11.615 15.833,11.500 15.913,11.500 16.010 C 11.500 16.107,11.425 16.140,11.333 16.083 C 11.242 16.027,11.167 16.072,11.167 16.185 C 11.167 16.297,11.121 16.343,11.065 16.287 C 11.009 16.231,10.559 16.413,10.065 16.692 C 9.571 16.970,9.167 17.149,9.167 17.088 C 9.167 17.027,8.942 17.138,8.667 17.333 C 8.392 17.529,8.167 17.642,8.167 17.584 C 8.167 17.450,6.791 18.194,6.628 18.417 C 6.560 18.508,6.504 18.522,6.503 18.447 C 6.501 18.372,6.294 18.451,6.042 18.622 C 5.790 18.793,5.377 19.021,5.125 19.130 C 4.873 19.238,4.667 19.394,4.667 19.477 C 4.667 19.623,4.046 19.888,3.792 19.851 C 3.723 19.841,3.667 19.908,3.667 20.000 C 3.667 20.092,3.554 20.167,3.417 20.167 C 3.279 20.167,3.166 20.223,3.166 20.292 C 3.166 20.360,2.757 20.637,2.259 20.906 C 1.760 21.175,1.397 21.468,1.452 21.557 C 1.507 21.645,1.470 21.668,1.370 21.606 C 1.270 21.544,0.999 21.683,0.768 21.913 C 0.537 22.144,0.272 22.333,0.179 22.333 C -0.047 22.333,0.087 39.512,0.329 41.667 C 0.427 42.537,0.588 43.700,0.688 44.250 C 0.788 44.800,0.898 45.587,0.933 46.000 C 0.967 46.413,1.188 47.425,1.423 48.250 C 1.658 49.075,1.869 49.825,1.892 49.917 C 2.219 51.217,3.099 53.310,3.414 53.539 C 3.507 53.606,3.520 53.663,3.442 53.664 C 3.365 53.666,3.488 53.985,3.717 54.375 C 3.945 54.765,4.139 55.158,4.148 55.250 C 4.157 55.342,4.285 55.558,4.433 55.731 C 4.580 55.903,4.791 56.241,4.900 56.481 C 5.227 57.196,5.741 57.998,5.875 57.999 C 5.944 58.000,6.000 58.104,6.000 58.232 C 6.000 58.360,6.112 58.508,6.250 58.560 C 6.388 58.613,6.500 58.765,6.500 58.898 C 6.500 59.030,6.559 59.164,6.631 59.194 C 6.702 59.225,7.119 59.719,7.557 60.292 C 7.995 60.865,8.411 61.333,8.483 61.333 C 8.555 61.333,8.699 61.521,8.803 61.750 C 8.907 61.979,9.107 62.167,9.246 62.167 C 9.386 62.167,9.500 62.241,9.500 62.332 C 9.500 62.627,11.467 64.773,11.681 64.711 C 11.755 64.690,11.974 64.896,12.169 65.170 C 12.363 65.443,12.587 65.667,12.666 65.667 C 12.745 65.667,13.088 65.929,13.428 66.250 C 13.768 66.571,14.104 66.833,14.175 66.833 C 14.246 66.833,14.554 67.060,14.860 67.337 C 16.214 68.562,16.764 68.998,16.958 68.999 C 17.073 69.000,17.167 69.076,17.167 69.169 C 17.167 69.263,17.429 69.464,17.750 69.617 C 18.071 69.770,18.333 70.006,18.333 70.142 C 18.333 70.278,18.385 70.338,18.447 70.275 C 18.510 70.212,18.810 70.402,19.114 70.696 C 19.418 70.991,19.667 71.180,19.667 71.116 C 19.667 71.052,19.804 71.131,19.973 71.292 C 20.141 71.452,20.453 71.696,20.667 71.833 C 20.880 71.971,21.193 72.215,21.361 72.375 C 21.529 72.535,21.728 72.667,21.802 72.667 C 21.876 72.667,22.083 72.798,22.260 72.958 C 22.775 73.423,23.906 74.249,24.028 74.249 C 24.090 74.250,24.315 74.401,24.528 74.586 C 25.412 75.351,26.119 75.825,26.223 75.721 C 26.284 75.661,26.333 75.691,26.333 75.789 C 26.333 75.950,26.953 76.418,28.832 77.678 C 29.183 77.913,29.684 78.272,29.944 78.475 C 30.892 79.216,33.000 80.660,33.000 80.568 C 33.000 80.517,33.231 80.706,33.514 80.988 C 33.797 81.271,34.087 81.466,34.159 81.421 C 34.232 81.376,34.525 81.563,34.811 81.837 C 35.096 82.110,35.387 82.334,35.457 82.334 C 35.526 82.334,35.846 82.559,36.167 82.833 C 36.487 83.108,36.836 83.333,36.941 83.333 C 37.045 83.333,37.176 83.451,37.231 83.594 C 37.286 83.737,37.393 83.816,37.468 83.769 C 37.544 83.723,37.807 83.871,38.053 84.099 C 38.299 84.327,38.500 84.470,38.500 84.417 C 38.500 84.363,38.705 84.510,38.957 84.743 C 39.208 84.976,39.476 85.167,39.552 85.167 C 39.629 85.167,40.230 85.563,40.887 86.048 C 41.545 86.533,42.290 87.033,42.542 87.160 C 42.794 87.286,43.000 87.443,43.000 87.508 C 43.000 87.573,43.225 87.719,43.500 87.833 C 43.775 87.947,44.000 88.106,44.000 88.187 C 44.000 88.267,44.074 88.333,44.165 88.333 C 44.320 88.333,44.756 88.650,45.257 89.125 C 45.377 89.240,45.524 89.333,45.583 89.333 C 45.641 89.333,45.935 89.521,46.235 89.750 C 46.536 89.979,46.834 90.167,46.899 90.167 C 46.963 90.167,47.190 90.354,47.402 90.583 C 47.614 90.813,47.862 91.000,47.952 91.000 C 48.041 91.000,48.333 91.187,48.599 91.416 C 48.865 91.646,49.142 91.833,49.214 91.833 C 49.286 91.833,49.265 91.983,49.167 92.167 C 49.069 92.350,48.897 92.500,48.786 92.500 C 48.674 92.500,48.264 92.791,47.875 93.147 C 47.485 93.503,47.167 93.749,47.167 93.694 C 47.167 93.638,47.050 93.759,46.907 93.963 C 46.765 94.167,46.540 94.333,46.407 94.333 C 46.275 94.333,46.167 94.398,46.167 94.478 C 46.167 94.557,45.454 95.167,44.583 95.833 C 43.712 96.499,43.000 97.109,43.000 97.189 C 43.000 97.268,42.919 97.333,42.820 97.333 C 42.721 97.333,42.344 97.633,41.980 98.000 C 41.617 98.367,41.265 98.667,41.197 98.667 C 41.130 98.667,40.950 98.798,40.798 98.958 C 40.645 99.119,40.320 99.400,40.074 99.583 C 39.281 100.174,38.333 101.122,38.333 101.324 C 38.333 101.431,38.269 101.480,38.191 101.432 C 38.113 101.383,37.874 101.529,37.662 101.755 C 37.449 101.981,37.345 102.169,37.429 102.172 C 37.514 102.175,37.452 102.253,37.292 102.347 C 37.131 102.440,37.000 102.630,37.000 102.768 C 37.000 102.906,36.926 102.974,36.835 102.918 C 36.737 102.857,36.715 102.932,36.780 103.102 C 36.856 103.299,36.828 103.350,36.691 103.265 C 36.581 103.197,36.507 103.204,36.526 103.279 C 36.545 103.355,36.472 103.717,36.365 104.083 C 36.257 104.450,36.168 105.744,36.168 106.958 L 36.167 109.167 55.601 109.167 L 75.035 109.167 74.974 106.542 C 74.941 105.098,74.841 103.804,74.753 103.667 C 74.665 103.529,74.590 103.336,74.588 103.238 C 74.582 103.013,73.761 101.969,73.000 101.219 C 71.747 99.984,71.574 99.833,71.413 99.833 C 71.322 99.833,71.149 99.676,71.029 99.484 C 70.908 99.292,70.773 99.171,70.728 99.216 C 70.683 99.261,70.477 99.137,70.271 98.941 C 69.271 97.990,68.287 97.145,67.874 96.882 C 67.622 96.723,67.295 96.459,67.147 96.296 C 66.999 96.133,66.790 96.000,66.684 96.000 C 66.577 96.000,66.446 95.887,66.394 95.750 C 66.341 95.612,66.234 95.500,66.156 95.500 C 66.077 95.500,65.708 95.201,65.336 94.836 C 64.696 94.208,63.833 93.957,63.833 94.397 C 63.833 94.484,63.783 94.505,63.722 94.444 C 63.661 94.383,63.492 94.433,63.347 94.556 C 63.202 94.679,62.311 95.106,61.366 95.504 C 60.422 95.902,59.611 96.289,59.565 96.364 C 59.518 96.439,59.335 96.500,59.157 96.500 C 58.979 96.500,58.833 96.587,58.833 96.694 C 58.833 96.801,58.783 96.839,58.722 96.777 C 58.660 96.716,58.454 96.766,58.263 96.889 C 58.073 97.012,57.129 97.468,56.167 97.903 C 53.435 99.138,53.001 99.338,51.667 99.978 C 50.979 100.308,50.379 100.586,50.333 100.594 C 50.288 100.603,49.586 100.923,48.775 101.305 C 47.964 101.687,47.233 102.000,47.150 102.000 C 47.068 102.000,47.000 102.063,47.000 102.139 C 47.000 102.215,46.887 102.278,46.750 102.278 C 46.370 102.278,46.452 102.037,46.875 101.909 C 47.081 101.847,47.449 101.609,47.693 101.382 C 47.936 101.154,48.186 100.982,48.248 100.999 C 48.310 101.016,48.579 100.836,48.846 100.598 C 49.114 100.360,49.367 100.184,49.411 100.208 C 49.454 100.231,49.642 100.119,49.830 99.958 C 50.017 99.798,50.245 99.667,50.335 99.667 C 50.426 99.667,50.500 99.604,50.500 99.527 C 50.500 99.450,50.692 99.299,50.926 99.193 C 51.160 99.086,51.307 98.925,51.251 98.835 C 51.193 98.741,51.260 98.713,51.408 98.770 C 51.550 98.824,51.667 98.795,51.667 98.704 C 51.667 98.613,51.798 98.491,51.958 98.433 C 52.375 98.283,52.948 97.932,53.304 97.610 C 53.472 97.458,53.661 97.333,53.723 97.333 C 53.785 97.333,54.054 97.139,54.321 96.901 C 54.588 96.664,54.844 96.495,54.890 96.526 C 54.936 96.558,55.148 96.425,55.362 96.232 C 55.575 96.039,55.994 95.742,56.292 95.571 C 56.590 95.401,56.833 95.203,56.833 95.131 C 56.833 95.059,56.946 95.000,57.083 95.000 C 57.221 95.000,57.333 94.925,57.333 94.833 C 57.333 94.742,57.413 94.667,57.511 94.667 C 57.705 94.667,58.882 93.827,58.972 93.625 C 59.003 93.556,59.131 93.500,59.258 93.500 C 59.385 93.500,59.735 93.287,60.036 93.028 C 60.337 92.768,60.827 92.414,61.125 92.242 C 61.423 92.069,61.667 91.865,61.667 91.788 C 61.667 91.710,61.728 91.685,61.802 91.731 C 61.877 91.777,62.148 91.633,62.406 91.412 C 62.663 91.191,63.015 90.965,63.187 90.910 C 63.359 90.856,63.500 90.757,63.500 90.691 C 63.500 90.626,63.744 90.431,64.042 90.259 C 64.340 90.088,64.696 89.844,64.833 89.719 C 64.971 89.593,65.758 89.063,66.583 88.540 C 67.408 88.017,68.228 87.457,68.404 87.296 C 68.581 87.135,68.862 86.960,69.029 86.907 C 69.197 86.854,69.333 86.741,69.333 86.655 C 69.333 86.570,69.446 86.500,69.583 86.500 C 69.721 86.500,69.833 86.442,69.833 86.372 C 69.833 86.301,70.171 86.059,70.583 85.833 C 70.996 85.608,71.333 85.361,71.333 85.285 C 71.333 85.209,71.397 85.186,71.475 85.234 C 71.553 85.282,71.759 85.193,71.933 85.034 C 72.378 84.631,74.816 83.000,74.974 83.000 C 75.046 83.000,75.317 82.778,75.578 82.506 C 75.838 82.234,76.110 82.048,76.182 82.093 C 76.254 82.137,76.390 82.041,76.485 81.879 C 76.579 81.716,76.659 81.643,76.662 81.715 C 76.664 81.787,76.828 81.696,77.025 81.512 C 77.222 81.329,77.447 81.218,77.525 81.266 C 77.603 81.314,77.667 81.236,77.667 81.093 C 77.667 80.950,77.723 80.849,77.792 80.868 C 77.996 80.924,78.893 80.395,79.235 80.017 C 79.409 79.824,79.618 79.667,79.700 79.667 C 79.781 79.667,79.938 79.593,80.049 79.503 C 81.046 78.689,81.334 78.490,81.338 78.610 C 81.341 78.687,81.421 78.617,81.515 78.455 C 81.610 78.292,81.758 78.203,81.844 78.256 C 81.930 78.310,82.000 78.291,82.000 78.216 C 82.000 78.140,82.300 77.893,82.667 77.667 C 83.033 77.440,83.333 77.197,83.333 77.127 C 83.333 77.057,83.390 77.018,83.458 77.040 C 83.603 77.085,85.190 76.025,85.372 75.761 C 85.440 75.663,85.496 75.639,85.497 75.707 C 85.500 75.822,85.917 75.522,86.423 75.042 C 86.544 74.927,86.689 74.833,86.745 74.833 C 86.892 74.833,87.823 74.159,88.412 73.626 C 88.689 73.374,88.992 73.166,89.083 73.164 C 89.175 73.162,89.549 72.899,89.915 72.580 C 90.281 72.261,90.669 72.000,90.778 72.000 C 90.887 72.000,91.123 71.813,91.304 71.583 C 91.484 71.354,91.703 71.167,91.791 71.167 C 91.879 71.167,92.154 70.979,92.401 70.750 C 92.648 70.521,92.911 70.333,92.984 70.333 C 93.057 70.333,93.353 70.108,93.642 69.832 C 93.931 69.556,94.167 69.383,94.167 69.447 C 94.167 69.511,94.309 69.417,94.484 69.240 C 94.658 69.062,95.052 68.729,95.359 68.501 C 95.666 68.272,96.116 67.878,96.359 67.626 C 96.602 67.373,96.881 67.167,96.980 67.167 C 97.078 67.167,97.282 66.979,97.432 66.750 C 97.582 66.521,97.782 66.333,97.875 66.333 C 97.969 66.333,98.208 66.165,98.408 65.958 C 98.607 65.752,99.216 65.172,99.760 64.670 C 100.305 64.167,100.731 63.696,100.707 63.623 C 100.683 63.550,100.776 63.447,100.914 63.395 C 101.052 63.342,101.122 63.229,101.070 63.145 C 101.018 63.061,101.042 63.012,101.123 63.038 C 101.298 63.092,102.333 62.150,102.333 61.937 C 102.333 61.855,102.505 61.630,102.716 61.436 C 102.926 61.242,103.392 60.708,103.752 60.250 C 104.111 59.792,104.483 59.362,104.578 59.294 C 104.672 59.227,104.690 59.171,104.617 59.169 C 104.543 59.168,104.712 58.923,104.991 58.625 C 105.270 58.327,105.499 57.995,105.499 57.887 C 105.500 57.779,105.601 57.590,105.724 57.467 C 106.064 57.126,106.910 55.767,106.869 55.625 C 106.849 55.556,106.921 55.500,107.028 55.500 C 107.135 55.500,107.173 55.450,107.112 55.390 C 107.051 55.329,107.193 55.029,107.426 54.723 C 107.659 54.417,107.807 54.167,107.753 54.167 C 107.700 54.167,107.886 53.754,108.167 53.250 C 108.447 52.746,108.635 52.333,108.584 52.333 C 108.533 52.333,108.608 52.108,108.750 51.833 C 109.110 51.138,110.166 47.723,110.243 47.007 C 110.278 46.682,110.431 45.854,110.583 45.167 C 110.735 44.479,110.870 43.448,110.882 42.875 C 110.895 42.302,110.956 41.833,111.017 41.833 C 111.079 41.833,111.141 37.478,111.156 32.154 L 111.183 22.474 110.633 21.990 C 110.331 21.723,110.019 21.504,109.941 21.503 C 109.862 21.501,109.571 21.309,109.292 21.074 C 108.995 20.824,108.678 20.690,108.523 20.750 C 108.379 20.805,108.312 20.800,108.374 20.737 C 108.504 20.607,107.877 20.077,107.104 19.664 C 106.818 19.511,106.171 19.168,105.667 18.902 C 105.162 18.635,104.712 18.374,104.667 18.321 C 104.547 18.184,103.939 17.942,103.792 17.974 C 103.723 17.988,103.667 17.933,103.667 17.850 C 103.667 17.768,103.292 17.565,102.833 17.400 C 102.375 17.236,102.000 17.028,102.000 16.939 C 102.000 16.850,101.955 16.822,101.901 16.877 C 101.846 16.931,101.481 16.797,101.089 16.578 C 100.697 16.359,100.329 16.227,100.271 16.284 C 100.214 16.342,100.167 16.297,100.167 16.185 C 100.167 16.072,100.092 16.027,100.000 16.083 C 99.908 16.140,99.833 16.107,99.833 16.010 C 99.833 15.913,99.718 15.833,99.578 15.833 C 99.437 15.833,98.964 15.652,98.525 15.429 C 97.291 14.804,97.322 14.682,97.372 19.928 L 97.417 24.583 99.000 25.371 C 99.871 25.804,100.730 26.273,100.909 26.413 C 101.088 26.552,101.322 26.667,101.428 26.667 C 101.535 26.667,101.809 26.814,102.039 26.995 C 102.268 27.175,102.503 27.275,102.561 27.217 C 102.637 27.141,102.738 34.398,102.705 37.500 C 102.668 41.025,101.989 46.403,101.286 48.750 C 101.093 49.392,100.927 49.992,100.916 50.083 C 100.855 50.592,100.410 51.833,100.289 51.833 C 100.211 51.833,100.193 51.908,100.250 52.000 C 100.307 52.092,100.274 52.167,100.177 52.167 C 100.079 52.167,100.000 52.260,99.999 52.375 C 99.999 52.762,98.175 56.167,97.969 56.167 C 97.894 56.167,97.833 56.247,97.833 56.344 C 97.833 56.496,97.512 56.977,96.750 57.966 C 96.658 58.085,96.397 58.366,96.168 58.591 C 95.940 58.816,95.801 59.000,95.858 59.000 C 95.916 59.000,95.638 59.329,95.242 59.732 C 94.845 60.135,94.553 60.497,94.593 60.537 C 94.633 60.578,94.479 60.711,94.250 60.833 C 94.021 60.956,93.833 61.115,93.833 61.186 C 93.833 61.356,90.413 64.833,90.246 64.833 C 90.175 64.833,89.847 65.112,89.517 65.452 C 89.187 65.792,89.022 66.005,89.151 65.926 C 89.311 65.828,89.347 65.843,89.266 65.974 C 89.201 66.080,89.056 66.167,88.944 66.167 C 88.832 66.167,88.527 66.410,88.266 66.708 C 88.004 67.006,87.755 67.223,87.712 67.189 C 87.668 67.156,87.133 67.577,86.521 68.124 C 85.910 68.672,84.661 69.717,83.746 70.447 C 82.832 71.177,81.980 71.900,81.855 72.054 C 81.729 72.208,81.525 72.333,81.402 72.333 C 81.279 72.333,81.098 72.483,81.000 72.667 C 80.902 72.850,80.730 73.000,80.618 73.000 C 80.505 73.000,80.320 73.150,80.205 73.333 C 80.091 73.517,79.920 73.667,79.825 73.667 C 79.633 73.667,77.615 75.298,77.528 75.523 C 77.497 75.602,77.366 75.667,77.236 75.667 C 77.106 75.667,77.000 75.742,77.000 75.833 C 77.000 75.925,76.901 76.000,76.780 76.000 C 76.659 76.000,76.407 76.169,76.219 76.375 C 76.032 76.581,75.636 76.938,75.339 77.167 C 75.042 77.396,74.699 77.677,74.578 77.792 C 74.456 77.906,74.296 78.000,74.220 78.000 C 74.145 78.000,73.783 78.260,73.417 78.578 C 72.505 79.368,72.542 79.339,71.417 80.166 C 70.867 80.571,70.230 81.074,70.002 81.284 C 69.773 81.495,69.498 81.667,69.391 81.667 C 69.283 81.667,69.169 81.727,69.139 81.801 C 69.108 81.876,68.633 82.269,68.083 82.675 C 67.533 83.082,67.023 83.509,66.950 83.624 C 66.877 83.739,66.721 83.833,66.604 83.833 C 66.487 83.833,66.215 84.021,66.000 84.250 C 65.785 84.479,65.526 84.667,65.425 84.667 C 65.324 84.667,65.117 84.798,64.965 84.958 C 64.582 85.364,64.201 85.667,64.072 85.667 C 63.938 85.667,62.271 87.035,62.194 87.208 C 62.164 87.277,62.044 87.333,61.927 87.333 C 61.811 87.333,61.520 87.514,61.282 87.735 C 60.891 88.097,60.828 88.110,60.633 87.869 C 60.455 87.650,60.456 87.626,60.636 87.735 C 60.784 87.824,60.886 87.752,60.947 87.517 C 60.998 87.324,61.137 87.167,61.256 87.167 C 61.376 87.167,61.811 86.829,62.224 86.417 C 62.636 86.004,63.053 85.667,63.150 85.667 C 63.246 85.667,63.449 85.479,63.599 85.250 C 63.749 85.021,63.957 84.832,64.061 84.830 C 64.226 84.826,65.012 84.164,66.715 82.595 C 66.971 82.360,67.252 82.167,67.340 82.167 C 67.428 82.167,67.500 82.052,67.500 81.913 C 67.500 81.773,67.669 81.592,67.875 81.511 C 68.333 81.331,68.847 80.741,68.695 80.571 C 68.633 80.502,68.682 80.504,68.803 80.573 C 68.939 80.652,69.192 80.536,69.469 80.268 C 69.934 79.820,70.194 79.590,71.656 78.333 C 72.137 77.921,72.761 77.377,73.045 77.125 C 73.328 76.873,73.616 76.667,73.685 76.667 C 73.754 76.667,73.853 76.533,73.905 76.369 C 73.957 76.206,74.220 75.942,74.490 75.782 C 74.760 75.623,75.280 75.213,75.647 74.871 C 76.014 74.530,76.706 73.912,77.185 73.500 C 77.665 73.087,78.213 72.591,78.404 72.396 C 78.594 72.202,79.076 71.770,79.474 71.438 C 79.872 71.105,80.143 70.833,80.077 70.833 C 80.010 70.833,80.150 70.680,80.389 70.492 C 80.960 70.043,82.334 68.667,82.211 68.667 C 82.159 68.667,82.390 68.401,82.724 68.075 C 83.059 67.750,83.333 67.455,83.333 67.419 C 83.333 67.384,83.652 67.004,84.042 66.576 C 84.431 66.148,84.750 65.745,84.750 65.680 C 84.750 65.615,84.938 65.378,85.167 65.154 C 85.396 64.931,85.658 64.629,85.750 64.484 C 85.942 64.180,86.681 63.137,87.446 62.089 C 87.737 61.690,87.930 61.319,87.876 61.265 C 87.822 61.211,87.848 61.167,87.934 61.167 C 88.020 61.167,88.276 60.810,88.503 60.375 C 88.731 59.940,89.048 59.404,89.208 59.186 C 89.369 58.967,89.500 58.648,89.500 58.478 C 89.500 58.307,89.565 58.167,89.644 58.167 C 89.858 58.167,90.759 56.271,90.693 55.958 C 90.679 55.890,90.746 55.833,90.843 55.833 C 90.940 55.833,90.977 55.765,90.925 55.681 C 90.874 55.597,90.907 55.503,91.001 55.472 C 91.094 55.441,91.200 55.262,91.236 55.074 C 91.272 54.886,91.432 54.436,91.592 54.074 C 91.752 53.713,91.901 53.328,91.925 53.220 C 91.948 53.111,92.160 52.436,92.396 51.720 C 93.017 49.833,93.670 47.306,93.575 47.153 C 93.530 47.081,93.575 46.661,93.675 46.219 C 94.054 44.541,94.322 41.655,94.220 40.337 C 94.147 39.382,94.172 39.000,94.309 39.000 C 94.451 39.000,94.500 34.953,94.500 23.083 C 94.500 9.210,94.469 7.167,94.256 7.167 C 94.121 7.167,93.765 7.063,93.464 6.937 C 92.245 6.425,90.192 5.684,89.250 5.416 C 88.700 5.260,88.138 5.091,88.000 5.041 C 87.862 4.991,87.600 4.922,87.417 4.887 C 87.233 4.853,86.689 4.677,86.208 4.498 C 85.726 4.318,85.295 4.170,85.249 4.169 C 85.204 4.168,85.148 4.159,85.125 4.149 C 85.102 4.139,84.896 4.118,84.667 4.102 C 84.438 4.086,83.756 3.904,83.152 3.698 C 82.549 3.493,81.836 3.295,81.569 3.258 C 81.302 3.221,80.596 3.061,80.000 2.901 C 79.404 2.741,78.729 2.596,78.500 2.580 C 78.271 2.563,77.971 2.509,77.833 2.459 C 77.419 2.308,74.969 1.817,74.167 1.724 C 73.754 1.676,72.442 1.463,71.250 1.250 C 70.058 1.038,68.783 0.861,68.417 0.858 C 68.050 0.855,66.737 0.736,65.500 0.594 C 64.262 0.451,61.900 0.260,60.250 0.170 C 57.381 0.014,56.459 0.007,53.083 0.118 M63.000 11.724 C 63.957 11.782,65.793 12.162,66.500 12.449 C 66.637 12.504,66.864 12.573,67.003 12.601 C 67.347 12.671,69.646 13.777,70.183 14.131 C 71.316 14.877,71.641 15.142,72.417 15.950 C 73.536 17.116,73.833 17.475,73.833 17.660 C 73.833 17.746,73.939 17.877,74.068 17.950 C 74.197 18.023,74.561 18.588,74.877 19.205 C 75.192 19.822,75.487 20.291,75.531 20.247 C 75.575 20.203,75.615 20.260,75.620 20.375 C 75.637 20.769,75.835 21.650,76.012 22.116 C 76.565 23.570,76.635 54.238,76.089 55.750 C 76.023 55.933,75.883 56.308,75.778 56.583 C 75.673 56.858,75.577 57.140,75.564 57.208 C 75.552 57.277,75.523 57.371,75.500 57.417 C 75.477 57.462,75.447 57.556,75.433 57.625 C 75.366 57.962,74.444 59.664,74.168 59.960 C 73.995 60.146,73.892 60.337,73.940 60.384 C 73.987 60.432,73.345 61.161,72.513 62.005 C 71.681 62.849,71.000 63.490,71.000 63.430 C 71.000 63.329,70.827 63.450,70.278 63.936 C 70.162 64.039,69.890 64.179,69.672 64.248 C 69.454 64.318,69.127 64.512,68.946 64.681 C 68.765 64.850,68.553 64.949,68.475 64.901 C 68.397 64.853,68.333 64.893,68.333 64.990 C 68.333 65.087,68.165 65.169,67.958 65.172 C 67.752 65.175,67.438 65.287,67.260 65.422 C 67.082 65.557,66.796 65.667,66.625 65.667 C 66.432 65.667,66.359 65.740,66.433 65.859 C 66.500 65.969,66.479 66.007,66.383 65.947 C 66.290 65.890,65.726 65.983,65.129 66.154 C 64.533 66.324,63.491 66.512,62.814 66.570 C 62.137 66.629,61.331 66.722,61.024 66.777 C 60.716 66.832,60.116 66.894,59.690 66.914 C 58.321 66.979,35.945 67.001,35.882 66.937 C 35.816 66.872,37.566 64.960,38.900 63.641 C 39.349 63.197,39.651 62.833,39.571 62.833 C 39.491 62.833,39.593 62.717,39.796 62.574 L 40.167 62.314 40.167 39.243 L 40.167 16.171 39.500 15.544 C 39.134 15.199,38.834 14.855,38.834 14.780 C 38.833 14.624,37.674 13.500,37.513 13.500 C 37.454 13.500,37.279 13.286,37.125 13.025 C 36.970 12.764,36.598 12.308,36.297 12.011 L 35.750 11.473 48.833 11.566 C 56.029 11.617,62.404 11.688,63.000 11.724 M52.667 39.020 L 52.667 57.207 56.292 57.132 C 60.122 57.053,60.649 56.956,61.458 56.180 C 61.665 55.982,61.833 55.872,61.833 55.936 C 61.833 56.264,62.582 55.303,63.012 54.423 L 63.504 53.417 63.497 38.655 C 63.489 22.044,63.636 23.787,62.118 22.302 C 61.668 21.861,61.239 21.539,61.164 21.585 C 61.090 21.631,61.003 21.612,60.973 21.543 C 60.757 21.056,59.171 20.832,55.958 20.833 L 52.667 20.833 52.667 39.020 M310.648 26.902 C 310.613 26.935,308.333 27.006,305.583 27.060 C 301.886 27.133,300.041 27.242,298.501 27.480 C 297.355 27.657,296.379 27.778,296.331 27.749 C 296.283 27.719,295.570 27.840,294.747 28.018 C 293.924 28.196,293.137 28.365,293.000 28.395 C 292.779 28.442,292.745 31.609,292.708 55.474 L 292.666 82.500 299.083 82.500 L 305.500 82.500 305.500 60.604 L 305.500 38.708 306.042 38.584 C 306.930 38.380,311.391 38.345,311.629 38.540 C 311.746 38.636,311.886 38.669,311.941 38.614 C 312.216 38.340,314.500 39.964,314.500 40.434 C 314.500 40.562,314.575 40.667,314.667 40.667 C 314.758 40.667,314.820 40.723,314.803 40.792 C 314.786 40.860,314.861 41.217,314.969 41.583 C 315.114 42.078,315.165 47.438,315.166 62.375 L 315.167 82.500 320.837 82.500 L 326.507 82.500 326.496 61.050 L 326.485 39.600 327.784 39.203 C 331.364 38.109,335.125 38.955,335.604 40.962 C 335.664 41.212,335.757 41.492,335.812 41.583 C 335.867 41.675,335.922 41.806,335.935 41.875 C 335.948 41.944,335.968 51.112,335.979 62.250 L 336.000 82.500 342.505 82.500 L 349.009 82.500 348.957 60.375 C 348.909 40.287,348.878 38.158,348.625 37.250 C 348.471 36.700,348.340 36.063,348.334 35.833 C 348.327 35.604,348.177 35.117,348.000 34.750 C 347.823 34.383,347.675 34.012,347.672 33.926 C 347.665 33.733,346.799 32.438,346.625 32.361 C 346.556 32.331,346.500 32.230,346.500 32.138 C 346.500 31.999,345.638 31.132,344.374 30.000 C 343.923 29.596,342.594 28.764,342.458 28.800 C 342.390 28.818,342.333 28.764,342.333 28.680 C 342.333 28.596,342.109 28.477,341.835 28.417 C 341.561 28.357,341.294 28.238,341.242 28.154 C 341.190 28.069,340.979 28.000,340.773 28.000 C 340.568 28.000,340.329 27.939,340.242 27.864 C 340.072 27.718,338.788 27.383,337.833 27.236 C 336.616 27.049,335.049 27.011,329.417 27.032 C 328.652 27.035,326.653 27.335,326.000 27.544 C 325.679 27.647,325.249 27.711,325.044 27.687 C 324.840 27.663,324.579 27.701,324.464 27.772 C 324.350 27.843,324.142 27.915,324.003 27.933 C 323.597 27.985,320.765 29.019,320.599 29.176 C 320.513 29.257,320.260 29.186,320.016 29.013 C 319.492 28.644,317.890 27.944,317.566 27.944 C 317.438 27.944,317.333 27.898,317.333 27.841 C 317.333 27.785,317.202 27.730,317.042 27.720 C 316.881 27.711,316.188 27.577,315.500 27.424 C 314.813 27.270,313.513 27.113,312.612 27.074 C 311.711 27.035,310.915 26.967,310.844 26.923 C 310.772 26.879,310.684 26.869,310.648 26.902 M124.720 28.001 C 124.749 28.192,124.967 28.571,125.205 28.841 C 125.442 29.112,125.603 29.333,125.562 29.333 C 125.520 29.333,125.677 29.539,125.910 29.790 C 126.143 30.041,126.333 30.307,126.333 30.381 C 126.333 30.454,126.517 30.712,126.741 30.954 C 126.965 31.196,127.111 31.455,127.065 31.530 C 127.018 31.605,127.050 31.667,127.135 31.667 C 127.220 31.667,127.487 31.965,127.728 32.330 L 128.167 32.993 128.166 55.288 L 128.165 77.583 127.624 78.161 C 127.327 78.478,127.083 78.780,127.083 78.831 C 127.083 78.882,126.906 79.110,126.689 79.337 C 126.472 79.564,126.189 79.994,126.062 80.292 C 125.934 80.590,125.742 80.833,125.637 80.833 C 125.531 80.833,125.490 80.879,125.546 80.935 C 125.602 80.991,125.427 81.223,125.157 81.450 C 123.863 82.539,123.480 82.501,135.458 82.494 C 147.674 82.486,150.883 82.364,152.485 81.844 C 153.073 81.653,153.748 81.462,153.985 81.419 C 154.374 81.349,155.516 80.861,156.167 80.487 C 156.304 80.408,156.850 80.104,157.381 79.812 C 158.646 79.115,160.590 77.464,160.560 77.111 C 160.547 76.958,160.614 76.833,160.707 76.833 C 160.899 76.833,161.666 75.991,161.666 75.781 C 161.667 75.706,161.847 75.406,162.067 75.114 C 162.562 74.458,163.329 72.649,163.423 71.918 C 163.461 71.619,163.588 71.159,163.705 70.895 C 164.404 69.315,164.006 37.833,163.286 37.833 C 163.210 37.833,163.191 37.762,163.245 37.675 C 163.380 37.456,162.212 34.833,161.979 34.833 C 161.917 34.833,161.702 34.515,161.500 34.125 C 161.105 33.363,158.917 31.167,158.554 31.167 C 158.432 31.167,158.331 31.110,158.328 31.042 C 158.322 30.887,157.548 30.313,157.280 30.265 C 157.172 30.246,156.821 30.064,156.500 29.861 C 156.179 29.659,155.729 29.447,155.500 29.390 C 155.271 29.334,155.008 29.232,154.917 29.165 C 154.712 29.016,153.509 28.603,153.167 28.565 C 153.029 28.549,152.156 28.379,151.226 28.185 C 149.153 27.755,150.920 27.811,136.708 27.725 L 124.667 27.652 124.720 28.001 M170.611 27.778 C 170.550 27.839,170.500 40.176,170.500 55.194 L 170.500 82.500 176.917 82.500 L 183.333 82.500 183.333 72.985 L 183.333 63.470 187.375 63.547 C 189.598 63.590,191.567 63.666,191.750 63.716 C 191.933 63.767,192.121 63.814,192.167 63.821 C 192.405 63.858,193.152 64.652,193.398 65.128 C 193.650 65.617,193.677 66.518,193.670 74.086 L 193.661 82.500 200.252 82.500 L 206.842 82.500 206.787 73.875 C 206.756 69.131,206.688 65.063,206.635 64.833 C 206.581 64.604,206.455 64.066,206.355 63.638 C 206.153 62.785,205.560 61.667,205.307 61.667 C 205.219 61.667,205.200 61.580,205.266 61.475 C 205.331 61.369,205.273 61.200,205.136 61.100 C 204.999 60.999,204.798 60.749,204.689 60.543 C 204.580 60.338,204.436 60.187,204.370 60.207 C 204.304 60.227,203.785 59.926,203.216 59.537 C 202.647 59.149,201.804 58.744,201.343 58.637 L 200.505 58.444 201.377 57.861 C 201.857 57.541,202.310 57.179,202.383 57.056 C 202.457 56.934,202.598 56.833,202.698 56.833 C 202.900 56.833,203.667 56.056,203.667 55.851 C 203.667 55.778,203.817 55.583,204.000 55.417 C 204.183 55.251,204.333 55.020,204.333 54.905 C 204.333 54.789,204.415 54.667,204.514 54.634 C 204.680 54.579,205.178 53.357,205.451 52.333 C 205.800 51.031,205.651 36.611,205.273 35.000 C 205.110 34.307,204.305 32.500,204.159 32.500 C 204.084 32.500,203.980 32.367,203.928 32.204 C 203.817 31.853,202.241 30.167,202.024 30.167 C 201.942 30.167,201.777 30.050,201.658 29.906 C 201.402 29.598,199.463 28.667,198.848 28.558 C 198.611 28.516,198.042 28.377,197.583 28.248 C 197.125 28.120,196.022 27.936,195.132 27.841 C 193.356 27.650,170.797 27.592,170.611 27.778 M223.541 27.851 C 222.876 27.928,221.864 28.114,221.291 28.264 C 220.719 28.414,220.175 28.554,220.083 28.576 C 219.992 28.598,219.710 28.702,219.458 28.808 C 218.691 29.130,218.088 29.357,218.000 29.357 C 217.954 29.357,217.857 29.464,217.783 29.595 C 217.710 29.726,217.549 29.833,217.426 29.833 C 217.303 29.833,216.972 30.048,216.690 30.311 C 216.409 30.574,216.149 30.760,216.112 30.724 C 216.076 30.687,215.831 30.941,215.568 31.287 C 215.305 31.633,214.936 32.067,214.748 32.250 C 214.436 32.555,214.096 33.169,214.011 33.583 C 213.992 33.675,213.862 33.877,213.722 34.031 C 213.582 34.186,213.517 34.392,213.577 34.489 C 213.637 34.587,213.610 34.667,213.517 34.667 C 213.300 34.667,212.735 36.515,212.649 37.500 C 212.537 38.794,212.578 72.034,212.693 73.045 C 212.810 74.079,213.597 76.477,213.909 76.750 C 214.013 76.842,214.193 77.148,214.308 77.431 C 214.537 77.992,216.157 79.777,216.375 79.707 C 216.449 79.683,216.553 79.777,216.606 79.915 C 216.659 80.053,216.770 80.167,216.854 80.167 C 216.937 80.167,217.403 80.431,217.889 80.754 C 218.376 81.077,218.943 81.374,219.150 81.413 C 219.357 81.453,219.952 81.646,220.472 81.841 C 221.877 82.369,224.337 82.489,233.877 82.495 L 242.338 82.500 242.294 77.292 L 242.250 72.083 234.458 72.050 C 230.172 72.031,226.571 71.956,226.455 71.883 C 226.339 71.810,226.039 71.500,225.789 71.196 L 225.333 70.641 225.333 65.404 L 225.333 60.167 232.829 60.167 L 240.324 60.167 240.370 55.042 L 240.417 49.917 232.875 49.956 L 225.333 49.995 225.333 44.864 L 225.333 39.733 225.784 39.038 C 226.460 37.996,226.422 38.000,234.775 38.000 L 242.333 38.000 242.333 32.833 L 242.333 27.667 233.542 27.688 C 228.706 27.700,224.206 27.773,223.541 27.851 M248.611 27.778 C 248.550 27.839,248.500 40.176,248.500 55.194 L 248.500 82.500 255.000 82.500 L 261.500 82.500 261.500 73.000 L 261.500 63.500 266.915 63.500 L 272.331 63.500 272.374 72.958 L 272.417 82.417 279.047 82.460 L 285.678 82.504 285.623 61.544 C 285.573 42.221,285.546 40.499,285.278 39.505 C 285.118 38.911,284.967 38.295,284.942 38.134 C 284.918 37.973,284.846 37.790,284.782 37.727 C 284.719 37.663,284.664 37.492,284.661 37.347 C 284.658 37.202,284.510 36.783,284.333 36.417 C 284.156 36.050,284.009 35.656,284.006 35.542 C 284.003 35.427,283.925 35.333,283.833 35.333 C 283.742 35.333,283.682 35.277,283.700 35.208 C 283.769 34.954,282.632 33.335,282.460 33.442 C 282.358 33.505,282.330 33.473,282.395 33.368 C 282.517 33.171,280.839 31.333,280.539 31.333 C 280.441 31.333,280.336 31.277,280.306 31.208 C 280.155 30.870,278.590 29.910,278.292 29.974 C 278.223 29.988,278.167 29.932,278.167 29.848 C 278.167 29.672,275.636 28.668,274.969 28.578 C 274.722 28.545,274.209 28.434,273.827 28.332 C 273.445 28.229,273.091 28.187,273.040 28.238 C 272.989 28.289,272.865 28.262,272.764 28.179 C 272.244 27.746,249.028 27.361,248.611 27.778 M360.582 28.631 C 360.416 29.155,360.139 30.011,359.966 30.534 C 359.792 31.056,359.622 31.619,359.587 31.784 C 359.552 31.949,359.216 33.021,358.840 34.166 C 358.464 35.312,358.119 36.464,358.073 36.727 C 358.026 36.990,357.879 37.418,357.744 37.677 C 357.610 37.937,357.469 38.322,357.429 38.533 C 357.390 38.744,357.347 38.917,357.333 38.917 C 357.319 38.917,357.283 39.048,357.252 39.208 C 357.201 39.477,357.420 39.500,360.015 39.500 L 362.833 39.500 362.833 61.000 L 362.833 82.500 369.333 82.500 L 375.833 82.500 375.833 55.080 L 375.833 27.660 368.358 27.670 L 360.883 27.680 360.582 28.631 M385.096 27.875 C 384.936 28.435,384.456 29.789,384.310 30.093 C 384.219 30.281,384.164 30.506,384.187 30.593 C 384.210 30.679,384.117 31.012,383.981 31.333 C 383.845 31.654,383.633 32.254,383.511 32.667 C 383.389 33.079,383.150 33.811,382.980 34.292 C 382.810 34.774,382.675 35.187,382.679 35.209 C 382.695 35.284,382.557 35.740,382.264 36.583 C 381.997 37.352,381.868 37.810,381.571 39.042 L 381.461 39.500 384.314 39.500 L 387.167 39.500 387.167 61.000 L 387.167 82.500 393.583 82.500 L 400.000 82.500 400.000 55.083 L 400.000 27.667 392.578 27.667 C 386.784 27.667,385.143 27.712,385.096 27.875 M190.917 37.583 C 191.512 37.952,191.848 38.324,192.196 38.998 L 192.668 39.912 192.626 45.331 L 192.583 50.750 192.100 51.628 C 191.834 52.110,191.581 52.470,191.538 52.427 C 191.495 52.384,191.354 52.455,191.225 52.585 C 190.742 53.068,189.708 53.223,186.542 53.291 L 183.333 53.359 183.333 45.162 L 183.333 36.966 186.722 37.025 L 190.110 37.083 190.917 37.583 M270.049 37.538 C 270.529 37.806,270.838 37.900,270.846 37.780 C 270.854 37.672,270.902 37.696,270.954 37.833 C 271.006 37.971,271.251 38.346,271.498 38.667 C 272.309 39.718,272.333 39.957,272.333 46.858 L 272.333 53.333 266.917 53.333 L 261.500 53.333 261.500 45.146 L 261.500 36.958 265.383 37.029 C 269.203 37.099,269.278 37.107,270.049 37.538 M146.511 37.668 C 147.009 37.760,147.593 37.870,147.809 37.912 C 148.024 37.953,148.306 38.074,148.434 38.181 C 148.562 38.287,148.667 38.313,148.667 38.239 C 148.667 38.164,148.777 38.249,148.911 38.426 C 149.046 38.604,149.158 38.694,149.161 38.625 C 149.170 38.412,149.778 39.097,150.402 40.024 L 150.998 40.909 150.957 55.079 C 150.919 68.596,150.902 69.271,150.606 69.708 C 150.435 69.960,150.342 70.167,150.399 70.167 C 150.562 70.167,149.651 71.041,148.941 71.567 C 148.005 72.261,147.406 72.371,144.125 72.453 L 141.167 72.528 141.167 55.014 L 141.167 37.500 143.386 37.500 C 144.607 37.500,146.013 37.576,146.511 37.668 " stroke="none" fill="#ec1c24" fill-rule="evenodd"></path><path id="path1" d="M9.312 16.944 C 9.103 17.198,9.119 17.203,9.500 17.005 C 10.059 16.714,10.101 16.667,9.798 16.667 C 9.657 16.667,9.438 16.791,9.312 16.944 M75.446 20.292 C 75.363 20.433,75.610 21.167,75.741 21.167 C 75.787 21.167,75.757 20.987,75.673 20.767 C 75.590 20.547,75.566 20.322,75.622 20.267 C 75.677 20.212,75.677 20.167,75.621 20.167 C 75.565 20.167,75.487 20.223,75.446 20.292 M303.258 26.978 C 302.784 27.080,309.233 27.043,310.250 26.938 C 310.525 26.910,309.175 26.884,307.250 26.880 C 305.325 26.876,303.529 26.920,303.258 26.978 M310.847 26.894 C 310.885 26.928,311.329 26.998,311.833 27.050 C 312.425 27.111,312.602 27.095,312.333 27.006 C 311.920 26.868,310.714 26.777,310.847 26.894 M329.417 27.001 C 329.202 27.094,329.381 27.111,329.917 27.049 C 330.375 26.996,330.781 26.926,330.819 26.893 C 330.964 26.769,329.735 26.863,329.417 27.001 M331.417 26.938 C 332.500 27.050,336.472 27.077,336.203 26.970 C 336.046 26.908,334.792 26.863,333.417 26.872 C 332.042 26.880,331.142 26.910,331.417 26.938 M0.071 32.583 C 0.071 34.508,0.095 35.273,0.124 34.283 C 0.154 33.292,0.154 31.717,0.124 30.783 C 0.095 29.848,0.070 30.658,0.071 32.583 M94.218 39.917 C 94.219 40.467,94.250 40.672,94.287 40.372 C 94.325 40.072,94.324 39.622,94.286 39.372 C 94.248 39.122,94.217 39.367,94.218 39.917 M111.042 40.250 C 111.044 40.617,111.078 40.747,111.118 40.540 C 111.158 40.332,111.156 40.032,111.115 39.873 C 111.073 39.714,111.040 39.883,111.042 40.250 M225.542 49.948 C 225.702 49.990,225.965 49.990,226.125 49.948 C 226.285 49.906,226.154 49.872,225.833 49.872 C 225.512 49.872,225.381 49.906,225.542 49.948 M227.213 49.956 C 227.652 49.990,228.327 49.990,228.713 49.955 C 229.100 49.920,228.742 49.892,227.917 49.892 C 227.092 49.893,226.775 49.922,227.213 49.956 M230.458 49.957 C 231.031 49.989,231.969 49.989,232.542 49.957 C 233.115 49.924,232.646 49.898,231.500 49.898 C 230.354 49.898,229.885 49.924,230.458 49.957 M234.625 49.957 C 235.198 49.989,236.135 49.989,236.708 49.957 C 237.281 49.924,236.813 49.898,235.667 49.898 C 234.521 49.898,234.052 49.924,234.625 49.957 M238.127 49.951 C 238.334 49.991,238.634 49.990,238.794 49.948 C 238.953 49.906,238.783 49.874,238.417 49.875 C 238.050 49.877,237.920 49.911,238.127 49.951 M240.039 49.938 C 240.304 50.016,240.333 50.447,240.376 55.053 L 240.424 60.083 240.420 55.002 C 240.417 50.045,240.409 49.920,240.083 49.887 C 239.829 49.861,239.818 49.873,240.039 49.938 M203.167 59.508 C 203.745 59.901,204.074 60.015,203.667 59.682 C 203.438 59.494,203.175 59.340,203.083 59.340 C 202.992 59.339,203.029 59.415,203.167 59.508 " stroke="none" fill="#f01c24" fill-rule="evenodd"></path><path id="path2" d="M9.312 16.944 C 9.103 17.198,9.119 17.203,9.500 17.005 C 10.059 16.714,10.101 16.667,9.798 16.667 C 9.657 16.667,9.438 16.791,9.312 16.944 M75.446 20.292 C 75.363 20.433,75.610 21.167,75.741 21.167 C 75.787 21.167,75.757 20.987,75.673 20.767 C 75.590 20.547,75.566 20.322,75.622 20.267 C 75.677 20.212,75.677 20.167,75.621 20.167 C 75.565 20.167,75.487 20.223,75.446 20.292 M303.258 26.978 C 302.784 27.080,309.233 27.043,310.250 26.938 C 310.525 26.910,309.175 26.884,307.250 26.880 C 305.325 26.876,303.529 26.920,303.258 26.978 M310.847 26.894 C 310.885 26.928,311.329 26.998,311.833 27.050 C 312.425 27.111,312.602 27.095,312.333 27.006 C 311.920 26.868,310.714 26.777,310.847 26.894 M329.417 27.001 C 329.202 27.094,329.381 27.111,329.917 27.049 C 330.375 26.996,330.781 26.926,330.819 26.893 C 330.964 26.769,329.735 26.863,329.417 27.001 M331.417 26.938 C 332.500 27.050,336.472 27.077,336.203 26.970 C 336.046 26.908,334.792 26.863,333.417 26.872 C 332.042 26.880,331.142 26.910,331.417 26.938 M0.071 32.583 C 0.071 34.508,0.095 35.273,0.124 34.283 C 0.154 33.292,0.154 31.717,0.124 30.783 C 0.095 29.848,0.070 30.658,0.071 32.583 M94.218 39.917 C 94.219 40.467,94.250 40.672,94.287 40.372 C 94.325 40.072,94.324 39.622,94.286 39.372 C 94.248 39.122,94.217 39.367,94.218 39.917 M111.042 40.250 C 111.044 40.617,111.078 40.747,111.118 40.540 C 111.158 40.332,111.156 40.032,111.115 39.873 C 111.073 39.714,111.040 39.883,111.042 40.250 M225.542 49.948 C 225.702 49.990,225.965 49.990,226.125 49.948 C 226.285 49.906,226.154 49.872,225.833 49.872 C 225.512 49.872,225.381 49.906,225.542 49.948 M227.213 49.956 C 227.652 49.990,228.327 49.990,228.713 49.955 C 229.100 49.920,228.742 49.892,227.917 49.892 C 227.092 49.893,226.775 49.922,227.213 49.956 M230.458 49.957 C 231.031 49.989,231.969 49.989,232.542 49.957 C 233.115 49.924,232.646 49.898,231.500 49.898 C 230.354 49.898,229.885 49.924,230.458 49.957 M234.625 49.957 C 235.198 49.989,236.135 49.989,236.708 49.957 C 237.281 49.924,236.813 49.898,235.667 49.898 C 234.521 49.898,234.052 49.924,234.625 49.957 M238.127 49.951 C 238.334 49.991,238.634 49.990,238.794 49.948 C 238.953 49.906,238.783 49.874,238.417 49.875 C 238.050 49.877,237.920 49.911,238.127 49.951 M240.039 49.938 C 240.304 50.016,240.333 50.447,240.376 55.053 L 240.424 60.083 240.420 55.002 C 240.417 50.045,240.409 49.920,240.083 49.887 C 239.829 49.861,239.818 49.873,240.039 49.938 M203.167 59.508 C 203.745 59.901,204.074 60.015,203.667 59.682 C 203.438 59.494,203.175 59.340,203.083 59.340 C 202.992 59.339,203.029 59.415,203.167 59.508 " stroke="none" fill="#f01c24" fill-rule="evenodd"></path><path id="path3" d="M9.312 16.944 C 9.103 17.198,9.119 17.203,9.500 17.005 C 10.059 16.714,10.101 16.667,9.798 16.667 C 9.657 16.667,9.438 16.791,9.312 16.944 M75.446 20.292 C 75.363 20.433,75.610 21.167,75.741 21.167 C 75.787 21.167,75.757 20.987,75.673 20.767 C 75.590 20.547,75.566 20.322,75.622 20.267 C 75.677 20.212,75.677 20.167,75.621 20.167 C 75.565 20.167,75.487 20.223,75.446 20.292 M303.258 26.978 C 302.784 27.080,309.233 27.043,310.250 26.938 C 310.525 26.910,309.175 26.884,307.250 26.880 C 305.325 26.876,303.529 26.920,303.258 26.978 M310.847 26.894 C 310.885 26.928,311.329 26.998,311.833 27.050 C 312.425 27.111,312.602 27.095,312.333 27.006 C 311.920 26.868,310.714 26.777,310.847 26.894 M329.417 27.001 C 329.202 27.094,329.381 27.111,329.917 27.049 C 330.375 26.996,330.781 26.926,330.819 26.893 C 330.964 26.769,329.735 26.863,329.417 27.001 M331.417 26.938 C 332.500 27.050,336.472 27.077,336.203 26.970 C 336.046 26.908,334.792 26.863,333.417 26.872 C 332.042 26.880,331.142 26.910,331.417 26.938 M0.071 32.583 C 0.071 34.508,0.095 35.273,0.124 34.283 C 0.154 33.292,0.154 31.717,0.124 30.783 C 0.095 29.848,0.070 30.658,0.071 32.583 M94.218 39.917 C 94.219 40.467,94.250 40.672,94.287 40.372 C 94.325 40.072,94.324 39.622,94.286 39.372 C 94.248 39.122,94.217 39.367,94.218 39.917 M111.042 40.250 C 111.044 40.617,111.078 40.747,111.118 40.540 C 111.158 40.332,111.156 40.032,111.115 39.873 C 111.073 39.714,111.040 39.883,111.042 40.250 M225.542 49.948 C 225.702 49.990,225.965 49.990,226.125 49.948 C 226.285 49.906,226.154 49.872,225.833 49.872 C 225.512 49.872,225.381 49.906,225.542 49.948 M227.213 49.956 C 227.652 49.990,228.327 49.990,228.713 49.955 C 229.100 49.920,228.742 49.892,227.917 49.892 C 227.092 49.893,226.775 49.922,227.213 49.956 M230.458 49.957 C 231.031 49.989,231.969 49.989,232.542 49.957 C 233.115 49.924,232.646 49.898,231.500 49.898 C 230.354 49.898,229.885 49.924,230.458 49.957 M234.625 49.957 C 235.198 49.989,236.135 49.989,236.708 49.957 C 237.281 49.924,236.813 49.898,235.667 49.898 C 234.521 49.898,234.052 49.924,234.625 49.957 M238.127 49.951 C 238.334 49.991,238.634 49.990,238.794 49.948 C 238.953 49.906,238.783 49.874,238.417 49.875 C 238.050 49.877,237.920 49.911,238.127 49.951 M240.039 49.938 C 240.304 50.016,240.333 50.447,240.376 55.053 L 240.424 60.083 240.420 55.002 C 240.417 50.045,240.409 49.920,240.083 49.887 C 239.829 49.861,239.818 49.873,240.039 49.938 M203.167 59.508 C 203.745 59.901,204.074 60.015,203.667 59.682 C 203.438 59.494,203.175 59.340,203.083 59.340 C 202.992 59.339,203.029 59.415,203.167 59.508 " stroke="none" fill="#f01c24" fill-rule="evenodd"></path><path id="path4" d="M9.312 16.944 C 9.103 17.198,9.119 17.203,9.500 17.005 C 10.059 16.714,10.101 16.667,9.798 16.667 C 9.657 16.667,9.438 16.791,9.312 16.944 M75.446 20.292 C 75.363 20.433,75.610 21.167,75.741 21.167 C 75.787 21.167,75.757 20.987,75.673 20.767 C 75.590 20.547,75.566 20.322,75.622 20.267 C 75.677 20.212,75.677 20.167,75.621 20.167 C 75.565 20.167,75.487 20.223,75.446 20.292 M303.258 26.978 C 302.784 27.080,309.233 27.043,310.250 26.938 C 310.525 26.910,309.175 26.884,307.250 26.880 C 305.325 26.876,303.529 26.920,303.258 26.978 M310.847 26.894 C 310.885 26.928,311.329 26.998,311.833 27.050 C 312.425 27.111,312.602 27.095,312.333 27.006 C 311.920 26.868,310.714 26.777,310.847 26.894 M329.417 27.001 C 329.202 27.094,329.381 27.111,329.917 27.049 C 330.375 26.996,330.781 26.926,330.819 26.893 C 330.964 26.769,329.735 26.863,329.417 27.001 M331.417 26.938 C 332.500 27.050,336.472 27.077,336.203 26.970 C 336.046 26.908,334.792 26.863,333.417 26.872 C 332.042 26.880,331.142 26.910,331.417 26.938 M0.071 32.583 C 0.071 34.508,0.095 35.273,0.124 34.283 C 0.154 33.292,0.154 31.717,0.124 30.783 C 0.095 29.848,0.070 30.658,0.071 32.583 M94.218 39.917 C 94.219 40.467,94.250 40.672,94.287 40.372 C 94.325 40.072,94.324 39.622,94.286 39.372 C 94.248 39.122,94.217 39.367,94.218 39.917 M111.042 40.250 C 111.044 40.617,111.078 40.747,111.118 40.540 C 111.158 40.332,111.156 40.032,111.115 39.873 C 111.073 39.714,111.040 39.883,111.042 40.250 M225.542 49.948 C 225.702 49.990,225.965 49.990,226.125 49.948 C 226.285 49.906,226.154 49.872,225.833 49.872 C 225.512 49.872,225.381 49.906,225.542 49.948 M227.213 49.956 C 227.652 49.990,228.327 49.990,228.713 49.955 C 229.100 49.920,228.742 49.892,227.917 49.892 C 227.092 49.893,226.775 49.922,227.213 49.956 M230.458 49.957 C 231.031 49.989,231.969 49.989,232.542 49.957 C 233.115 49.924,232.646 49.898,231.500 49.898 C 230.354 49.898,229.885 49.924,230.458 49.957 M234.625 49.957 C 235.198 49.989,236.135 49.989,236.708 49.957 C 237.281 49.924,236.813 49.898,235.667 49.898 C 234.521 49.898,234.052 49.924,234.625 49.957 M238.127 49.951 C 238.334 49.991,238.634 49.990,238.794 49.948 C 238.953 49.906,238.783 49.874,238.417 49.875 C 238.050 49.877,237.920 49.911,238.127 49.951 M240.039 49.938 C 240.304 50.016,240.333 50.447,240.376 55.053 L 240.424 60.083 240.420 55.002 C 240.417 50.045,240.409 49.920,240.083 49.887 C 239.829 49.861,239.818 49.873,240.039 49.938 M203.167 59.508 C 203.745 59.901,204.074 60.015,203.667 59.682 C 203.438 59.494,203.175 59.340,203.083 59.340 C 202.992 59.339,203.029 59.415,203.167 59.508 " stroke="none" fill="#f01c24" fill-rule="evenodd"></path></g></svg>